<?xml version="1.0" encoding="utf-8"?>
<!-- Generator: Adobe Illustrator 19.2.0, SVG Export Plug-In . SVG Version: 6.00 Build 0)  -->
<svg version="1.1" id="Layer_1" xmlns="http://www.w3.org/2000/svg" xmlns:xlink="http://www.w3.org/1999/xlink" x="0px" y="0px"
	 width="24px" height="24px" viewBox="0 0 24 24" style="enable-background:new 0 0 24 24;" xml:space="preserve">
<style type="text/css">
	.st0{fill:#656665;}
</style>
<g id="new_x5F_window">
	<path class="st0" d="M15,17.6v1.2c0,0.5-0.5,0.9-0.9,0.9H3.2c-0.5,0-0.9-0.5-0.9-0.9V8C2.3,7.5,2.8,7,3.2,7H6
		c0.9-0.7,1.9-1.4,3.1-1.8h-5c-2,0-3.6,1.6-3.6,3.6v9c0,2,1.6,3.6,3.6,3.6h9c2,0,3.6-1.6,3.6-3.6v-1.6L15,17.6z"/>
	<path class="st0" d="M23.3,8.6l-8.9-6.7c-0.2-0.2-0.4-0.1-0.4,0.2v3.3c0,0,0,0,0,0.1v0.4c-1.9,0.2-9.7,1.3-9.9,9.3
		c1.6-3.9,7.3-3.9,9.9-3.8v0.4v0.1v3.8c0,0.3,0.2,0.4,0.4,0.2l8.9-6.7C23.5,8.9,23.5,8.8,23.3,8.6z"/>
</g>
</svg>
