<?xml version="1.0" encoding="utf-8"?>
<!-- Generator: Adobe Illustrator 19.2.0, SVG Export Plug-In . SVG Version: 6.00 Build 0)  -->
<svg version="1.1" id="Layer_1" xmlns="http://www.w3.org/2000/svg" xmlns:xlink="http://www.w3.org/1999/xlink" x="0px" y="0px"
	 width="24px" height="24px" viewBox="0 0 24 24" style="enable-background:new 0 0 24 24;" xml:space="preserve">
<style type="text/css">
	.st0{fill:#656665;}
</style>
<g id="picture_1_">
	<path class="st0" d="M22.6,2.5H1.4C1,2.5,0.6,2.9,0.6,3.4v17.3c0,0.5,0.4,0.9,0.9,0.9h21.1c0.5,0,0.9-0.4,0.9-0.9V3.4
		C23.4,2.9,23,2.5,22.6,2.5z M21.5,13.5l-3.3-3.4c0,0-1-1-1.8-1c-1,0-1.8,1-1.8,1s-2.5,2.9-3.4,3.8c1.5,0.7,3.8,4.4,2.1,3.3
		c-1.8-1.1-4.8-2.4-4.8-2.4l-5.8,3.8V4.4h19L21.5,13.5L21.5,13.5z M4.2,8.2c0-1.1,1-2.1,2.1-2.1s2.1,1,2.1,2.1s-1,2.1-2.1,2.1
		S4.2,9.3,4.2,8.2z"/>
</g>
</svg>
